<svg width="378" height="190" viewBox="0 0 378 190" fill="none" xmlns="http://www.w3.org/2000/svg">
<path d="M126.57 46.6952L127.404 45.1535C119.67 41.0341 111.715 38.3313 103.714 37.1883C100.4 36.7187 97.0611 36.4806 93.7892 36.4806C67.3937 36.4806 43.7796 52.3582 35.0264 75.9886L43.5223 79.1343C50.9642 59.0408 71.1659 45.5408 93.7901 45.5408C96.6384 45.5408 99.5488 45.7484 102.438 46.1587C117.776 48.3498 132.515 56.7167 146.245 71.0257L151.246 66.2254C144.49 59.0054 136.245 51.9288 126.57 46.6952Z" fill="#62AEB2"/>
<path d="M64.6333 152.493C41.8809 141.916 27.1797 119.548 27.1797 95.5073C27.1797 83.3454 30.7443 71.5757 37.4861 61.4701C40.0513 57.6214 43.0822 54.0138 46.4918 50.7485L50.6686 55.1117C47.5764 58.0709 44.8315 61.3371 42.5102 64.8195C36.4322 73.9304 33.2186 84.541 33.2186 95.5064C33.2186 117.541 46.2307 137.278 67.1793 147.015L64.6333 152.493Z" fill="#62AEB2"/>
<path d="M175.466 102.924L172.848 96.8137C172.608 96.3422 172.278 95.71 171.879 94.965C167.293 103.649 143.166 146.053 103.496 151.718C100.257 152.181 96.9159 153.241 93.7568 153.241C84.5177 153.237 75.6555 151.293 67.4188 147.46L64.3945 153.003C73.5858 157.279 83.4638 159.448 93.7616 159.452C97.2535 159.452 100.836 159.193 104.41 158.682C142.687 153.215 166.845 118.209 175.743 102.805L175.466 102.924Z" fill="#62AEB2"/>
<path d="M183.858 132.44C176.097 142.985 167.534 152.115 158.346 159.574L160.563 162.304C169.648 154.927 178.137 145.978 185.852 135.671C201.642 157.214 227.913 182.77 265.995 188.206L266.897 181.891C227.974 176.333 201.905 148.812 186.404 125.39C185.674 124.284 183.858 132.44 183.858 132.44Z" fill="#E47128"/>
<path d="M285.578 158.694C280.551 159.023 275.435 158.832 270.302 158.099C258.607 156.427 247.274 151.758 236.614 144.22L233.3 148.905C244.709 156.973 256.885 161.977 269.49 163.779C273.283 164.321 277.109 164.596 280.862 164.596C282.441 164.596 284.012 164.535 285.578 164.44V158.694Z" fill="#E5AD24"/>
<path d="M178.497 101.626L175.465 102.924L172.846 96.8139C170.885 92.9518 163.534 79.3505 151.246 66.2245L146.245 71.0248C157.022 82.2552 163.496 93.387 165.78 97.6517L174.973 113.695L182.832 109.189L178.497 101.626Z" fill="#E47128"/>
<path d="M280.863 153.588C277.606 153.588 274.304 153.351 271.047 152.882C230.106 147.036 206.153 105.467 201.767 97.1917L208.101 93.8346C210.615 98.5756 233.762 140.316 272.065 145.786C274.988 146.206 277.945 146.42 280.862 146.42V153.588H280.863Z" fill="#62AEB2"/>
<path d="M337.91 79.5351C335.181 70.6747 330.091 62.4992 323.188 55.8912C314.141 47.2375 302.652 41.7055 289.963 39.8941L291.124 31.7721C305.519 33.8255 318.567 40.1169 328.86 49.9633C336.772 57.5363 342.613 66.9265 345.752 77.1201L337.91 79.5351Z" fill="#00878F"/>
<path d="M228.312 53.4352L224.445 49.0318C238.37 36.802 253.522 29.4461 269.482 27.1698C273.25 26.6313 277.07 26.3578 280.832 26.3578C300.266 26.3578 318.474 33.5377 332.1 46.5757L328.049 50.8107C315.519 38.8219 298.751 32.2188 280.833 32.2188C277.347 32.2188 273.807 32.4732 270.311 32.9724C255.497 35.0852 241.367 41.9705 228.312 53.4352Z" fill="#00878F"/>
<path d="M198.541 110.512L178.214 100.842L183.049 90.6784C186.189 84.08 198.056 61.121 218.953 42.7758L227.411 35.3501L242.262 52.2674L233.803 59.6931C215.685 75.5984 205.278 96.351 203.376 100.35L198.541 110.512Z" fill="#E5AD24"/>
<path d="M26.4805 122.648C22.7265 114.081 20.8232 104.949 20.8232 95.5073C20.8232 76.8044 28.38 59.2779 42.1018 46.1538C46.8954 41.5687 52.305 37.6579 58.1813 34.5304L61.4857 40.7376C56.1775 43.5638 51.2911 47.095 46.9614 51.2372C34.6407 63.0204 27.8549 78.7431 27.8549 95.5073C27.8549 103.973 29.5592 112.153 32.9201 119.825L26.4805 122.648Z" fill="#00878F"/>
<path d="M50.7031 55.15L46.4575 50.7093C59.0221 38.6947 75.8322 32.0781 93.7901 32.0781C97.2906 32.0781 100.841 32.3316 104.341 32.8308C112.915 34.056 121.377 36.9033 129.493 41.2914L126.571 46.6952C119.095 42.6533 111.324 40.0356 103.472 38.9127C100.259 38.4546 97.0008 38.2212 93.7901 38.2212C77.4218 38.2222 62.12 44.2343 50.7031 55.15Z" fill="#E5AD24"/>
<path d="M8.63197 95.5073H4.88086C4.88086 72.4135 14.1859 50.7954 31.0822 34.6356L33.675 37.3461C17.5258 52.7915 8.63197 73.4464 8.63197 95.5073Z" fill="#E5AD24"/>
<path d="M157.068 31.3867C141.912 19.2707 125.299 11.8526 107.69 9.33819C103.078 8.68017 98.4012 8.34732 93.7903 8.34732C75.5484 8.34732 58.0353 13.4766 43.1447 23.1824L40.4141 18.9923C56.1186 8.75572 74.5766 3.34521 93.7912 3.34521C98.6375 3.34521 103.553 3.69527 108.398 4.38677C126.904 7.02937 144.329 14.7994 160.192 27.4797L157.068 31.3867Z" fill="#00878F"/>
<path d="M192.248 63.8553L182.38 56.8916C198.167 34.5151 225.442 6.63525 265.729 0.883301L267.436 12.8406C231.414 17.9842 206.666 43.4213 192.248 63.8553Z" fill="#00878F"/>
<path d="M203.548 65.2967L196.565 60.0173C210.381 41.74 233.925 18.9416 267.621 14.1337C272.003 13.5072 276.448 13.1897 280.832 13.1897C292.188 13.1897 303.189 15.2613 313.529 19.3472L310.313 27.4883C301.002 23.8089 291.084 21.9439 280.833 21.9439C276.863 21.9439 272.834 22.2327 268.858 22.8008C238.113 27.187 216.373 48.3307 203.548 65.2967Z" fill="#62AEB2"/>
<path d="M189.47 79.5493L179.7 75.5725L182.605 68.4347L182.855 68.0397C195.469 48.0753 223.129 13.6554 266.664 7.44439C271.365 6.77298 276.132 6.4325 280.832 6.4325V16.9809C276.629 16.9809 272.364 17.286 268.155 17.8866C231.004 23.1872 206.281 50.8432 192.021 73.2809L189.47 79.5493Z" fill="#62AEB2"/>
<path d="M189.303 68.738L184.249 62.5365C175.848 50.6319 166.441 40.4794 156.288 32.3622L160.972 26.5012C171.646 35.0345 181.515 45.6661 190.303 58.1015L195.115 63.9912L189.303 68.738Z" fill="#62AEB2"/>
<path d="M344.555 33.5644C327.56 17.3023 304.93 8.34729 280.833 8.34729C276.226 8.34729 271.55 8.68109 266.936 9.33816L266.23 4.38578C271.076 3.69428 275.99 3.34424 280.834 3.34424C306.226 3.34424 330.084 12.7928 348.013 29.9491L344.555 33.5644Z" fill="#E47128"/>
<path d="M106.47 173.121L104.647 160.357C155.684 153.071 181.115 93.6242 181.365 93.0245C182.496 90.3073 209.776 26.2172 268.156 17.8857L269.977 30.6502C218.784 37.9554 193.517 97.382 193.267 97.9816C192.133 100.707 164.835 164.788 106.47 173.121Z" fill="#00878F"/>
<path d="M52.8444 160.217L58.4423 150.584C72.1785 158.564 88.0973 161.542 104.48 159.198L106.058 170.221C116.73 168.698 127.157 165.044 137.047 159.363L127.707 143.1C119.887 147.591 111.71 150.47 103.401 151.656C100.18 152.116 96.9366 152.35 93.7565 152.35C77.5154 152.349 62.3331 146.379 51.0061 135.539C45.5201 130.289 41.241 124.21 38.2904 117.474L22.1909 124.525C26.0348 133.297 31.6414 141.341 38.8509 148.241L38.0399 149.088C42.5494 153.404 47.5209 157.12 52.8444 160.217Z" fill="#00878F"/>
<path d="M93.7613 176.009C71.3944 176.008 50.4037 167.705 34.6494 152.633L38.1892 148.933C52.986 163.091 72.7199 170.888 93.7556 170.889C97.8108 170.889 101.937 170.593 106.024 170.008C148.113 163.997 173.554 128.38 185.007 107.595L187.912 100.72L192.629 102.713L189.558 109.947C177.675 131.551 151.116 168.741 106.749 175.076C102.422 175.694 98.0528 176.009 93.7613 176.009Z" fill="#00878F"/>
<path d="M93.7614 189.86C67.805 189.856 43.4142 180.188 25.0757 162.637L31.5593 155.862C48.1447 171.735 70.2333 180.478 93.7566 180.482C98.27 180.482 102.852 180.153 107.379 179.505C124.924 176.998 141.449 169.527 156.498 157.3L162.411 164.578C146.023 177.891 127.956 186.037 108.707 188.787C103.743 189.498 98.7138 189.86 93.7614 189.86Z" fill="#00878F"/>
<path d="M107.796 182.403L106.636 174.281C144.446 168.882 169.462 140.75 183.803 118.07C184.242 117.309 188.103 110.609 189.582 107.797L196.845 111.615C195.207 114.729 191.044 121.939 190.867 122.244L190.784 122.384C175.526 146.536 148.744 176.557 107.796 182.403Z" fill="#E5AD24"/>
<path d="M53.1431 159.706C29.6026 146.036 15.5488 122.037 15.5488 95.5073C15.5488 91.6472 15.852 87.7765 16.4517 84.0044L22.239 84.9235C21.6891 88.3934 21.4088 91.9542 21.4088 95.5073C21.4088 119.924 34.3722 142.03 56.085 154.637L53.1431 159.706Z" fill="#62AEB2"/>
<path d="M24.9046 85.3453L13.7881 83.5817C17.0055 63.3102 28.211 45.3973 45.3415 33.1446C62.7399 20.6986 84.4039 15.5655 106.358 18.6978C111.301 19.4046 116.226 20.558 120.998 22.1256L117.484 32.8184C113.338 31.4565 109.059 30.4541 104.766 29.8401C65.8139 24.2957 30.7264 48.6645 24.9046 85.3453Z" fill="#E47128"/>
<path d="M23.4555 164.331C13.1921 154.511 5.4192 142.978 0.352051 130.05L13.4465 124.917C17.7638 135.93 24.4023 145.771 33.1785 154.168L23.4555 164.331Z" fill="#E5AD24"/>
<path d="M93.7616 183.411C69.4741 183.408 46.6662 174.376 29.5309 157.978C13.9345 143.053 4.47636 123.18 2.8973 102.021L2.88869 101.868L2.65723 95.6603L10.8557 95.3542L11.0843 101.485C12.5285 120.592 21.0923 138.546 35.2035 152.051C50.8047 166.98 71.5993 175.203 93.7568 175.206C98.0158 175.206 102.347 174.895 106.635 174.281L107.797 182.403C103.126 183.071 98.4031 183.411 93.7616 183.411Z" fill="#62AEB2"/>
<path d="M131.43 154.727L128.881 150.286L131.101 149.012C160.056 132.39 176.231 100.615 179.18 94.4141L180.279 92.1024L184.902 94.3013L183.803 96.6129C180.741 103.054 163.928 136.073 133.651 153.452L131.43 154.727Z" fill="#E5AD24"/>
<path d="M195.398 92.1446C195.142 91.5296 193.316 87.2228 189.843 80.9266L191.147 80.2084C179.07 58.2928 152.079 20.5676 107.007 14.1337C102.623 13.5072 98.1752 13.1897 93.7891 13.1897V21.9429C97.7621 21.9429 101.792 22.2318 105.769 22.7999C110.642 23.4961 115.28 24.6123 119.705 26.0508L116.503 35.7862C158.108 49.4708 179.03 98.3881 179.231 98.8682C180.385 101.641 208.162 166.888 267.828 175.404L270.301 158.073C220.589 150.977 195.641 92.7223 195.398 92.1446Z" fill="#00878F"/>
<path d="M359.638 95.5073H352.605C352.605 76.1397 344.059 57.6185 329.159 44.6924C313.152 30.8061 291.433 24.6333 269.562 27.7493L268.57 20.7875C292.455 17.3788 316.22 24.157 333.768 39.3795C350.209 53.6417 359.638 74.0996 359.638 95.5073Z" fill="#E5AD24"/>
<path d="M103.907 66.0083H84.8867V125.019H103.907V66.0083Z" fill="#E5AD24"/>
<path d="M123.899 86.0043H64.8926V105.028H123.899V86.0043Z" fill="#00878F"/>
<path d="M377.082 104.104L369.566 103.406C369.806 100.811 369.928 98.1538 369.928 95.5064C369.928 72.3532 360.604 50.6825 343.673 34.4836L348.893 29.0291C367.325 46.6646 377.477 70.274 377.477 95.5064C377.476 98.3843 377.344 101.277 377.082 104.104Z" fill="#62AEB2"/>
<path d="M351.22 108.497L346.313 107.521C347.101 103.554 347.5 99.4765 347.5 95.4041C347.5 78.3625 340.605 62.3787 328.084 50.3975L331.541 46.7832C345.059 59.717 352.503 76.9842 352.503 95.4041C352.503 99.8036 352.071 104.208 351.22 108.497Z" fill="#00878F"/>
<path d="M342.626 109.701L331.269 106.806C332.204 103.139 332.678 99.3368 332.679 95.5064C332.679 68.6891 309.421 46.8711 280.833 46.8711C278.05 46.8711 275.203 47.0748 272.373 47.4756C271.624 47.5827 270.877 47.7061 270.133 47.8429L268.019 36.3131C268.916 36.1486 269.814 36.0013 270.722 35.8713C274.1 35.3921 277.501 35.1492 280.832 35.1492C315.883 35.1492 344.4 62.2266 344.4 95.5064C344.399 100.314 343.802 105.089 342.626 109.701Z" fill="#E47128"/>
<path d="M248.715 49.5157L247.364 47.0778C220.454 61.9962 204.701 91.1977 201.816 96.9009L198.967 102.701L195.953 101.219L194.71 103.978L205.403 108.78L210.197 98.1041C213.016 92.8791 234.91 54.3333 270.139 47.842L269.079 42.0881C262.162 43.3659 255.325 45.8545 248.715 49.5157Z" fill="#00878F"/>
<path d="M280.863 178.722C276.446 178.722 271.946 178.399 267.489 177.762C247.59 174.92 229.128 165.674 212.614 150.283L219.806 142.566C234.713 156.46 251.258 164.789 268.981 167.321C273.716 167.996 278.473 168.254 283.147 168.144L283.394 178.691C282.55 178.711 281.708 178.722 280.863 178.722Z" fill="#62AEB2"/>
</svg>
