<svg width="169" height="190" viewBox="0 0 169 190" fill="none" xmlns="http://www.w3.org/2000/svg">
<path d="M166.53 142.544C167.847 140.261 168.666 137.69 168.666 135.38V55.2188C168.666 52.9094 167.848 50.3383 166.53 48.0559L84.7007 95.2999L166.53 142.544Z" fill="#00599C"/>
<path d="M91.972 188.056L161.394 147.975C163.394 146.821 165.212 144.827 166.529 142.544L84.7005 95.2999L2.87158 142.544C4.18923 144.827 6.00739 146.821 8.00664 147.975L77.429 188.056C81.428 190.365 87.9729 190.365 91.972 188.056Z" fill="#004482"/>
<path d="M166.53 48.0554C165.212 45.7724 163.394 43.7786 161.395 42.624L91.9722 2.54339C87.9732 0.234071 81.4283 0.234071 77.4292 2.54339L8.00686 42.624C4.00726 44.9327 0.735352 50.6007 0.735352 55.2188V135.38C0.735352 137.69 1.5536 140.261 2.8718 142.544L84.7007 95.2999L166.53 48.0554Z" fill="#659AD2"/>
<path d="M84.7005 151.277C53.8348 151.277 28.7236 126.166 28.7236 95.2999C28.7236 64.4341 53.8348 39.323 84.7005 39.323C104.617 39.323 123.192 50.0409 133.176 67.2939L108.951 81.3123C103.954 72.6764 94.6611 67.3114 84.7005 67.3114C69.2674 67.3114 56.7121 79.8667 56.7121 95.2999C56.7121 110.733 69.2674 123.288 84.7005 123.288C94.6622 123.288 103.955 117.923 108.952 109.286L133.178 123.304C123.194 140.558 104.618 151.277 84.7005 151.277Z" fill="white"/>
<path d="M128.239 98.4093V104.629H134.458V98.4093H140.678V92.1898H134.458V85.9703H128.239V92.1898H122.019V98.4093H128.239Z" fill="white"/>
<path d="M151.562 98.4093V104.629H157.781V98.4093H164.001V92.1898H157.781V85.9703H151.562V92.1898H145.342V98.4093H151.562Z" fill="white"/>
</svg>
