<svg width="169" height="187" viewBox="0 0 169 187" fill="none" xmlns="http://www.w3.org/2000/svg">
<g clip-path="url(#clip0_49_6)">
<path fill-rule="evenodd" clip-rule="evenodd" d="M79.621 1.27386C82.6409 -0.422503 86.3589 -0.422503 89.3741 1.27386C104.295 9.65772 149.195 34.8938 164.121 43.2776C167.14 44.9695 169 48.104 169 51.4967C169 68.2644 169 118.732 169 135.499C169 138.892 167.14 142.027 164.121 143.723C149.2 152.107 104.299 177.343 89.3741 185.727C86.3544 187.424 82.6364 187.424 79.621 185.727C64.7002 177.343 19.7997 152.107 4.87431 143.723C1.85899 142.027 0 138.897 0 135.504C0 118.736 0 68.2688 0 51.5011C0 48.1085 1.859 44.974 4.87876 43.2776C19.7952 34.8938 64.7046 9.65772 79.621 1.27386Z" fill="#004482"/>
<path fill-rule="evenodd" clip-rule="evenodd" d="M1.352 139.824C0.169 138.239 0 136.734 0 134.708C0 118.038 0 67.86 0 51.1858C0 47.8109 1.85455 44.6942 4.86541 43.0112C19.733 34.6764 64.4823 9.58724 79.3498 1.24792C82.3607 -0.439532 86.4389 -0.403913 89.4498 1.28354C104.317 9.61841 148.916 34.4938 163.783 42.8287C164.984 43.5055 165.9 44.3203 166.718 45.3932L1.352 139.824Z" fill="#659AD2"/>
<path fill-rule="evenodd" clip-rule="evenodd" d="M84.4999 31.168C118.865 31.168 146.763 59.0977 146.763 93.5012C146.763 127.905 118.865 155.835 84.4999 155.835C50.1351 155.835 22.2368 127.905 22.2368 93.5012C22.2368 59.0977 50.1351 31.168 84.4999 31.168ZM84.4999 62.3346C101.68 62.3346 115.632 76.2972 115.632 93.5012C115.632 110.701 101.68 124.668 84.4999 124.668C67.3197 124.668 53.3684 110.701 53.3684 93.5012C53.3684 76.2972 67.3153 62.3346 84.4999 62.3346Z" fill="white"/>
<path fill-rule="evenodd" clip-rule="evenodd" d="M166.709 45.4377C169.004 47.5882 168.96 50.8296 168.96 53.3808C168.96 70.2775 168.818 118.336 169 135.234C169.017 136.997 168.435 138.853 167.563 140.252L82.6899 93.5012L166.709 45.4377Z" fill="#00599C"/>
</g>
<defs>
<clipPath id="clip0_49_6">
<rect width="169" height="187" fill="white"/>
</clipPath>
</defs>
</svg>
