<svg width="172" height="131" viewBox="0 0 172 131" fill="none" xmlns="http://www.w3.org/2000/svg">
<path fill-rule="evenodd" clip-rule="evenodd" d="M81.0709 1.63203C84.1261 -0.0822577 87.8876 -0.0822577 90.9382 1.63203C106.034 10.1045 151.46 35.6073 166.56 44.0797C169.615 45.7895 171.496 48.9571 171.496 52.3856C171.496 69.3305 171.496 120.332 171.496 137.276C171.496 140.705 169.615 143.873 166.56 145.587C151.465 154.059 106.038 179.562 90.9382 188.035C87.8831 189.749 84.1216 189.749 81.0709 188.035C65.9753 179.562 20.5491 154.059 5.44896 145.587C2.39834 143.873 0.517578 140.71 0.517578 137.281C0.517578 120.336 0.517578 69.335 0.517578 52.3901C0.517578 48.9616 2.39834 45.794 5.45346 44.0797C20.5446 35.6073 65.9798 10.1045 81.0709 1.63203Z" fill="#004482"/>
<path fill-rule="evenodd" clip-rule="evenodd" d="M1.88541 141.646C0.688557 140.044 0.517578 138.523 0.517578 136.476C0.517578 119.63 0.517578 68.9214 0.517578 52.071C0.517578 48.6604 2.39384 45.5108 5.43996 43.81C20.4816 35.3871 65.7549 10.0328 80.7965 1.60535C83.8426 -0.0999384 87.9686 -0.063943 91.0147 1.64134C106.056 10.0643 151.177 35.2026 166.218 43.6256C167.433 44.3095 168.36 45.1329 169.188 46.2172L1.88541 141.646Z" fill="#659AD2"/>
<path fill-rule="evenodd" clip-rule="evenodd" d="M86.0067 31.8416C120.774 31.8416 148.999 60.0665 148.999 94.8336C148.999 129.601 120.774 157.826 86.0067 157.826C51.2396 157.826 23.0146 129.601 23.0146 94.8336C23.0146 60.0665 51.2396 31.8416 86.0067 31.8416ZM86.0067 63.3376C103.388 63.3376 117.503 77.4478 117.503 94.8336C117.503 112.215 103.388 126.33 86.0067 126.33C68.6254 126.33 54.5107 112.215 54.5107 94.8336C54.5107 77.4478 68.6209 63.3376 86.0067 63.3376Z" fill="white"/>
<path fill-rule="evenodd" clip-rule="evenodd" d="M169.179 46.2622C171.501 48.4354 171.456 51.711 171.456 54.2892C171.456 71.3645 171.312 119.931 171.496 137.007C171.514 138.789 170.925 140.665 170.043 142.078L84.1758 94.8336L169.179 46.2622Z" fill="#00599C"/>
</svg>
