<svg width="187" height="187" viewBox="0 0 187 187" fill="none" xmlns="http://www.w3.org/2000/svg">
<path d="M38.1382 148.862L6.15132 116.875C2.36211 112.975 0 107.488 0 102.112C0 99.6267 1.4025 95.7391 2.46053 93.5L31.9868 31.9868L38.1382 148.862Z" fill="#01579B"/>
<path d="M147.632 38.1382L115.645 6.15132C112.852 3.34632 107.033 0 102.112 0C97.8797 0 93.7337 0.848882 91.0394 2.46053L31.9868 31.9868L147.632 38.1382Z" fill="#40C4FF"/>
<path d="M153.783 153.783L95.9604 135.329L43.0591 153.783L76.2762 187H153.783V153.783Z" fill="#40C4FF"/>
<path d="M31.9868 131.638C31.9868 141.505 33.2294 143.928 38.1381 148.862L43.0592 153.783H153.783L99.6513 92.2697L31.9868 31.9868V131.638Z" fill="#29B6F6"/>
<path d="M130.408 31.9868H31.9868L153.783 153.783H187V77.5066L147.632 38.1381C142.108 32.5896 137.187 31.9868 130.408 31.9868Z" fill="#01579B"/>
<path opacity="0.2" d="M39.3684 150.092C34.4473 145.146 33.2171 140.287 33.2171 131.638V33.2171L31.9868 31.9868V131.638C31.9868 140.287 31.9868 142.686 39.3684 150.092Z" fill="white"/>
<path opacity="0.2" d="M152.553 152.553L153.783 153.783H187V77.5066L185.77 76.2764V152.553H152.553Z" fill="#263238"/>
<path opacity="0.2" d="M147.632 38.1381C141.529 32.036 136.535 31.9868 129.178 31.9868H31.9868L33.2171 33.2171H129.178C132.856 33.2171 142.12 32.6019 147.632 38.1381Z" fill="white"/>
<path opacity="0.2" d="M185.77 76.2763L147.632 38.1382L115.645 6.15132C112.852 3.34632 107.033 0 102.112 0C97.8797 0 93.7337 0.848882 91.0395 2.46053L31.9868 31.9868L2.46053 93.5C1.4025 95.7391 0 99.6267 0 102.112C0 107.488 2.36211 112.975 6.15132 116.875L35.6284 146.143C36.3297 147.004 37.1662 147.89 38.1382 148.862L39.3684 150.092L43.0592 153.783L75.046 185.77L76.2763 187H152.553H153.783V153.783H187V153.697V77.5066L185.77 76.2763Z" fill="url(#paint0_radial_52_15)"/>
<defs>
<radialGradient id="paint0_radial_52_15" cx="0" cy="0" r="1" gradientUnits="userSpaceOnUse" gradientTransform="translate(93.5 93.5) scale(93.5)">
<stop stop-color="white" stop-opacity="0.1"/>
<stop offset="1" stop-color="white" stop-opacity="0"/>
</radialGradient>
</defs>
</svg>
