<svg width="190" height="190" viewBox="0 0 190 190" fill="none" xmlns="http://www.w3.org/2000/svg">
<path d="M189.93 0.234863H0.953613V189.211H189.93V0.234863Z" fill="#512BD4"/>
<path d="M34.6355 120.97C33.2993 120.97 32.1636 120.524 31.2282 119.634C30.2929 118.72 29.8252 117.636 29.8252 116.38C29.8252 115.101 30.2929 114.006 31.2282 113.092C32.1636 112.179 33.2993 111.722 34.6355 111.722C35.994 111.722 37.1409 112.179 38.0763 113.092C39.0339 114.006 39.5127 115.101 39.5127 116.38C39.5127 117.636 39.0339 118.72 38.0763 119.634C37.1409 120.524 35.994 120.97 34.6355 120.97Z" fill="white"/>
<path d="M88.0515 120.216H79.366L56.4837 84.1163C55.9048 83.2029 55.4257 82.2551 55.0473 81.2734H54.8467C55.0249 82.3239 55.114 84.573 55.114 88.0206V120.216H47.4307V71.101H56.6839L78.7983 106.345C79.7336 107.806 80.3349 108.811 80.6022 109.359H80.7357C80.5131 108.057 80.4017 105.854 80.4017 102.748V71.101H88.0515V120.216Z" fill="white"/>
<path d="M125.466 120.216H98.5752V71.101H124.397V78.0197H106.526V91.9252H122.995V98.8096H106.526V113.332H125.466V120.216Z" fill="white"/>
<path d="M163.683 78.0197H149.92V120.216H141.97V78.0197H128.24V71.101H163.683V78.0197Z" fill="white"/>
</svg>
