<svg width="135" height="190" viewBox="0 0 135 190" fill="none" xmlns="http://www.w3.org/2000/svg">
<path d="M121.949 174.433L67.1228 189.632L12.4474 174.454L0.263184 37.7942H134.146L121.949 174.433Z" fill="#E44D26"/>
<path d="M67.2046 178.014L111.507 165.732L121.93 48.9681H67.2046V178.014Z" fill="#F16529"/>
<path d="M29.6974 116.414H67.2048V99.6533H45.0259L43.4942 82.4901H67.2048V65.7291H67.1469H25.1768L25.578 70.2258L29.6974 116.414Z" fill="#EBEBEB"/>
<path d="M67.2048 160.621V143.183L67.1313 143.202L48.4647 138.162L47.2715 124.795H38.201H30.4463L32.7945 151.111L67.1276 160.642L67.2048 160.621Z" fill="#EBEBEB"/>
<path d="M12.7197 0.655884H21.2373V9.07124H29.0289V0.655884H37.5469V26.1396H29.0293V17.6062H21.2377V26.1396H12.7201L12.7197 0.655884Z" fill="white"/>
<path d="M48.748 9.10667H41.2495V0.655884H64.7682V9.10667H57.2664V26.1396H48.7484L48.748 9.10667Z" fill="white"/>
<path d="M68.5005 0.655884H77.382L82.8454 9.61012L88.3031 0.655884H97.188V26.1396H88.7055V13.5085L82.8454 22.5694H82.6988L76.8346 13.5085V26.1396H68.5005V0.655884Z" fill="white"/>
<path d="M101.427 0.655884H109.947V17.7162H121.926V26.1396H101.427V0.655884Z" fill="white"/>
<path d="M105.698 104.154L106.107 99.6533H101.59H67.147V116.414H87.786L85.8405 138.151L67.147 143.197V160.634L101.507 151.111L101.76 148.28L105.698 104.154Z" fill="white"/>
<path d="M108.732 70.2258L109.133 65.7291H67.147V76.1391V82.4491V82.4901H107.578H107.632L107.968 78.7227L108.732 70.2258Z" fill="white"/>
</svg>
