<svg width="213" height="216" viewBox="0 0 213 216" fill="none" xmlns="http://www.w3.org/2000/svg">
<path d="M106.422 126.802C116.853 126.802 125.309 118.345 125.309 107.914C125.309 97.4829 116.853 89.0267 106.422 89.0267C95.9904 89.0267 87.5342 97.4829 87.5342 107.914C87.5342 118.345 95.9904 126.802 106.422 126.802Z" fill="#61DAFB"/>
<path d="M106.422 146.61C162.394 146.61 207.769 129.286 207.769 107.914C207.769 86.5429 162.394 69.218 106.422 69.218C50.4494 69.218 5.07471 86.5429 5.07471 107.914C5.07471 129.286 50.4494 146.61 106.422 146.61Z" stroke="#61DAFB" stroke-width="9.21338"/>
<path d="M72.9101 127.262C100.896 175.736 138.587 206.369 157.096 195.683C175.604 184.998 167.92 137.04 139.934 88.5661C111.948 40.0925 74.2565 9.45931 55.7484 20.145C37.2403 30.8306 44.9238 78.7887 72.9101 127.262Z" stroke="#61DAFB" stroke-width="9.21338"/>
<path d="M72.9101 88.5661C44.9238 137.04 37.2403 184.998 55.7484 195.683C74.2565 206.369 111.948 175.736 139.934 127.262C167.92 78.7887 175.604 30.8306 157.096 20.145C138.587 9.4593 100.896 40.0925 72.9101 88.5661Z" stroke="#61DAFB" stroke-width="9.21338"/>
</svg>
