<svg width="757" height="189" viewBox="0 0 757 189" fill="none" xmlns="http://www.w3.org/2000/svg">
<path d="M40.4584 145.351C32.5608 145.351 25.6035 143.973 19.5863 141.215C13.5692 138.458 8.93095 134.634 5.67166 129.745C2.41237 124.731 0.782715 118.964 0.782715 112.446C0.782715 106.93 1.91093 101.916 4.16737 97.4028C6.54916 92.8899 9.68309 89.3172 13.5692 86.6847C17.5806 84.0522 21.9682 82.7359 26.7317 82.7359C31.1192 82.7359 34.8173 83.8642 37.8258 86.1206C40.8344 88.2516 42.7148 91.2602 43.4669 95.1463C36.9483 95.1463 31.7461 96.9013 27.8599 100.411C23.9738 103.796 22.0308 108.434 22.0308 114.326C22.0308 119.716 23.6605 124.041 26.9197 127.301C30.179 130.56 34.5038 132.189 39.8942 132.189C46.5381 132.189 51.9912 129.996 56.2534 125.608C60.6409 121.095 62.8347 115.454 62.8347 108.685C62.8347 102.793 61.205 97.2147 57.9457 91.9497C54.6865 86.6847 49.7975 80.2915 43.2789 72.77C36.5096 64.9979 31.37 58.3539 27.8599 52.8382C24.4753 47.1971 22.7829 41.0545 22.7829 34.4106C22.7829 27.892 24.6007 22.0629 28.236 16.9233C31.8713 11.6583 36.8857 7.52146 43.2789 4.51288C49.6721 1.50429 56.8801 0 64.9031 0C75.057 0 83.1426 2.3818 89.1597 7.14539C95.3023 11.909 98.3735 18.3022 98.3735 26.3251C98.3735 31.5901 97.0572 35.8523 94.4247 39.1115C91.7922 42.3708 88.3449 44.0005 84.0827 44.0005C79.3192 44.0005 75.4957 42.0575 72.6125 38.1714C74.9944 36.4164 76.8747 34.0972 78.2536 31.214C79.6325 28.3308 80.322 25.3223 80.322 22.1883C80.322 18.1769 79.1312 14.9803 76.7493 12.5984C74.3675 10.2166 71.1082 9.02575 66.9715 9.02575C61.9571 9.02575 57.8203 10.8434 54.5611 14.4788C51.4271 17.9889 49.8602 22.5017 49.8602 28.0174C49.8602 33.0317 51.3018 37.7327 54.185 42.1201C57.0682 46.3823 61.581 51.898 67.7236 58.6673C72.7379 64.0577 76.7493 68.6959 79.7579 72.582C82.8919 76.4681 85.5244 80.981 87.6554 86.1206C89.9119 91.1349 91.0401 96.588 91.0401 102.48C91.0401 110.503 88.7836 117.773 84.2708 124.292C79.8833 130.811 73.8034 135.95 66.0313 139.71C58.3844 143.471 49.8602 145.351 40.4584 145.351ZM169.51 143.096C161.863 143.096 156.222 141.09 152.587 137.078C149.077 132.942 147.321 127.865 147.321 121.847C147.321 119.215 147.635 116.269 148.261 113.01C148.889 109.625 149.515 106.366 150.142 103.232C150.895 100.098 151.396 98.0923 151.647 97.2147C152.65 92.8273 153.59 88.5024 154.467 84.2402C155.345 79.978 155.783 76.5307 155.783 73.8982C155.783 67.505 153.527 64.3084 149.015 64.3084C145.755 64.3084 142.871 65.9381 140.365 69.1973C137.857 72.3313 135.852 76.4681 134.347 81.6077L121.561 141.967H94.4835L121.749 14.1027L149.578 10.342L139.424 57.7271C145.692 50.7071 153.025 47.1971 161.424 47.1971C167.818 47.1971 172.894 48.9521 176.655 52.4621C180.416 55.9722 182.296 61.2998 182.296 68.4452C182.296 72.0805 181.858 76.1547 180.981 80.6675C180.103 85.055 178.849 90.4454 177.22 96.8386C176.217 100.725 175.277 104.548 174.399 108.309C173.646 111.944 173.271 114.827 173.271 116.959C173.271 119.466 173.835 121.409 174.963 122.788C176.091 124.167 178.035 124.856 180.792 124.856C184.553 124.856 187.562 123.54 189.818 120.907C192.075 118.149 194.33 113.95 196.587 108.309H204.485C199.847 122.098 194.456 131.375 188.314 136.138C182.296 140.776 176.029 143.096 169.51 143.096ZM219.13 143.096C211.984 143.096 206.029 140.651 201.267 135.763C196.503 130.873 194.121 123.226 194.121 112.822C194.121 103.545 195.938 93.8301 199.573 83.6761C203.334 73.3968 208.85 64.7471 216.121 57.7271C223.517 50.5817 232.293 47.0091 242.446 47.0091C247.585 47.0091 251.409 47.8866 253.917 49.6416C256.424 51.3965 257.678 53.7157 257.678 56.5989V57.9152L259.745 47.9492H286.823L273.284 111.882C272.782 113.762 272.532 115.768 272.532 117.899C272.532 123.289 275.102 125.984 280.242 125.984C283.752 125.984 286.76 124.355 289.267 121.095C291.899 117.836 293.968 113.574 295.472 108.309H303.37C298.732 121.847 292.965 131.061 286.07 135.95C279.302 140.713 272.469 143.096 265.574 143.096C260.31 143.096 256.047 141.653 252.788 138.77C249.654 135.763 247.774 131.437 247.147 125.796C243.512 130.936 239.437 135.135 234.925 138.395C230.536 141.528 225.272 143.096 219.13 143.096ZM231.352 124.856C234.486 124.856 237.557 123.414 240.566 120.531C243.699 117.523 245.83 113.448 246.959 108.309L255.984 65.8127C255.984 64.183 255.358 62.6161 254.104 61.1118C252.851 59.4821 250.908 58.6673 248.276 58.6673C243.261 58.6673 238.748 61.6132 234.737 67.505C230.725 73.2715 227.592 80.2915 225.335 88.5651C223.078 96.7132 221.951 103.921 221.951 110.189C221.951 116.457 222.828 120.469 224.583 122.224C226.463 123.978 228.719 124.856 231.352 124.856ZM318.106 143.096C310.961 143.096 305.006 140.651 300.242 135.763C295.478 130.873 293.097 123.226 293.097 112.822C293.097 103.545 294.915 93.8301 298.55 83.6761C302.311 73.3968 307.826 64.7471 315.097 57.7271C322.493 50.5817 331.268 47.0091 341.422 47.0091C346.562 47.0091 350.386 47.8866 352.892 49.6416C355.399 51.3965 356.653 53.7157 356.653 56.5989V57.351L365.866 14.1027L393.697 10.342L372.072 111.882C371.57 113.762 371.319 115.768 371.319 117.899C371.319 120.406 371.884 122.224 373.013 123.352C374.265 124.355 376.271 124.856 379.029 124.856C382.539 124.856 385.547 123.352 388.056 120.343C390.688 117.335 392.756 113.323 394.26 108.309H402.158C394.511 130.748 381.912 141.967 364.363 141.967C359.222 141.967 355.024 140.588 351.764 137.83C348.631 135.072 346.688 131.061 345.934 125.796C342.676 130.811 338.727 134.947 334.089 138.207C329.576 141.467 324.247 143.096 318.106 143.096ZM330.328 124.856C333.337 124.856 336.346 123.477 339.353 120.719C342.487 117.961 344.619 114.138 345.747 109.249V108.309L354.961 65.2486C353.832 60.8611 351.263 58.6673 347.251 58.6673C342.236 58.6673 337.724 61.6132 333.712 67.505C329.702 73.2715 326.567 80.2915 324.31 88.5651C322.055 96.7132 320.926 103.921 320.926 110.189C320.926 116.457 321.803 120.469 323.558 122.224C325.439 123.978 327.696 124.856 330.328 124.856ZM421.222 143.096C411.946 143.096 404.738 140.713 399.598 135.95C394.459 131.061 391.89 123.477 391.89 113.198C391.89 104.548 393.582 95.0209 396.966 84.6163C400.351 74.2117 405.867 65.2486 413.514 57.7271C421.16 50.0803 430.875 46.2569 442.659 46.2569C456.448 46.2569 463.343 52.2741 463.343 64.3084C463.343 71.3284 461.338 77.7844 457.326 83.6761C453.314 89.5679 447.987 94.3315 441.343 97.9669C434.699 101.477 427.617 103.483 420.095 103.984C419.844 107.745 419.719 110.252 419.719 111.505C419.719 117.648 420.784 121.847 422.916 124.104C425.046 126.235 428.494 127.301 433.258 127.301C440.026 127.301 445.793 125.734 450.556 122.6C455.445 119.466 460.773 114.702 466.539 108.309H472.932C459.018 131.5 441.782 143.096 421.222 143.096ZM421.599 94.9583C426.237 94.7076 430.624 93.0779 434.761 90.0693C439.023 87.0608 442.408 83.2374 444.915 78.5991C447.547 73.9609 448.864 69.0719 448.864 63.9323C448.864 58.7927 447.298 56.2228 444.163 56.2228C439.651 56.2228 435.201 60.1716 430.812 68.0691C426.551 75.9666 423.479 84.9297 421.599 94.9583ZM479.286 47.9492H506.363L503.919 59.6075C508.181 55.8468 512.004 52.9636 515.39 50.9578C518.9 48.9521 522.66 47.9492 526.672 47.9492C530.683 47.9492 533.817 49.3281 536.074 52.086C538.455 54.8439 539.646 58.1658 539.646 62.052C539.646 65.6873 538.455 68.8839 536.074 71.6418C533.691 74.3997 530.37 75.7786 526.107 75.7786C523.349 75.7786 521.469 75.1519 520.466 73.8982C519.589 72.5193 518.9 70.5762 518.397 68.0691C518.022 66.4394 517.646 65.2486 517.27 64.4964C516.894 63.7443 516.205 63.3682 515.202 63.3682C512.569 63.3682 510.312 63.9323 508.432 65.0605C506.677 66.0633 504.357 67.8811 501.474 70.5136L486.431 141.967H459.354L479.286 47.9492ZM555.812 143.096C549.796 143.096 544.907 141.215 541.146 137.455C537.511 133.694 535.693 128.053 535.693 120.531C535.693 117.397 536.194 113.323 537.197 108.309L548.479 55.4707H542.275L543.778 47.9492H549.983L555.624 22.0002L583.454 18.2395L577.061 47.9492H588.343L586.838 55.4707H575.556L563.522 111.882C563.021 113.762 562.77 115.768 562.77 117.899C562.77 120.406 563.334 122.224 564.462 123.352C565.716 124.355 567.722 124.856 570.48 124.856C574.115 124.856 577.499 123.352 580.634 120.343C583.767 117.209 586.024 113.198 587.403 108.309H595.3C590.662 121.847 584.707 131.061 577.437 135.95C570.166 140.713 562.959 143.096 555.812 143.096ZM614.781 142.719C605.504 142.719 598.171 140.338 592.781 135.574C587.39 130.811 584.695 123.289 584.695 113.01C584.695 104.485 586.45 95.0209 589.961 84.6163C593.47 74.2117 599.111 65.2486 606.884 57.7271C614.655 50.0803 624.434 46.2569 636.218 46.2569C652.262 46.2569 660.286 56.2855 660.286 76.3427V76.5307C660.663 76.6561 661.352 76.7188 662.355 76.7188C666.491 76.7188 671.254 75.6532 676.646 73.5222C682.036 71.2657 686.925 68.5706 691.312 65.4366L693.004 70.5136C689.369 74.3997 684.605 77.7216 678.713 80.4795C672.946 83.112 666.616 84.9924 659.722 86.1206C658.719 97.5282 656.149 107.494 652.013 116.018C647.875 124.543 642.548 131.124 636.03 135.763C629.511 140.401 622.428 142.719 614.781 142.719ZM622.302 125.796C625.311 125.796 628.32 124.104 631.329 120.719C634.338 117.209 636.97 112.508 639.225 106.617C641.482 100.599 643.112 93.9555 644.115 86.6847C640.73 85.9325 639.038 83.3 639.038 78.7872C639.038 73.6476 640.98 70.2629 644.866 68.6332C644.617 64.4964 643.989 61.6759 642.986 60.1716C641.983 58.5419 640.228 57.7271 637.722 57.7271C633.584 57.7271 629.574 60.7357 625.688 66.7529C621.801 72.77 618.667 79.978 616.286 88.377C613.903 96.776 612.713 104.172 612.713 110.565C612.713 116.582 613.402 120.657 614.781 122.788C616.16 124.793 618.667 125.796 622.302 125.796ZM699.294 188.976C693.403 188.976 688.2 187.033 683.688 183.147C679.301 179.386 677.106 174.56 677.106 168.669C677.106 163.152 678.485 158.64 681.244 155.13C684.002 151.62 687.574 148.862 691.961 146.857C696.348 144.851 702.24 142.719 709.636 140.464L711.517 132.189C705.124 139.461 697.477 143.096 688.577 143.096C682.559 143.096 677.67 141.215 673.909 137.455C670.274 133.694 668.456 128.053 668.456 120.531C668.456 117.397 668.959 113.323 669.962 108.309L682.748 47.9492H709.824L696.287 111.882C695.91 113.386 695.722 114.953 695.722 116.582C695.722 122.098 697.602 124.856 701.363 124.856C704.872 124.856 707.881 123.414 710.389 120.531C712.896 117.523 714.902 113.448 716.406 108.309L729.193 47.9492H756.458L733.517 157.01C731.011 169.044 726.559 177.38 720.166 182.019C713.899 186.657 706.941 188.976 699.294 188.976ZM694.97 172.241C697.227 172.241 699.357 171.05 701.363 168.669C703.369 166.412 704.935 162.714 706.064 157.574L708.321 146.48C701.677 148.737 696.536 151.369 692.901 154.378C689.266 157.387 687.448 161.272 687.448 166.035C687.448 167.541 688.2 168.919 689.705 170.173C691.209 171.552 692.964 172.241 694.97 172.241Z" fill="white"/>
</svg>
