<svg width="190" height="190" viewBox="0 0 190 190" fill="none" xmlns="http://www.w3.org/2000/svg">
<path d="M7.46796 0.0600586H182.271C186.185 0.0600586 189.358 3.23283 189.358 7.14667V181.95C189.358 185.864 186.185 189.036 182.271 189.036H7.46796C3.55412 189.036 0.381348 185.864 0.381348 181.95V7.14667C0.381348 3.23283 3.55412 0.0600586 7.46796 0.0600586Z" fill="white"/>
<path d="M7.46796 0.0600586H182.271C186.185 0.0600586 189.358 3.23283 189.358 7.14667V181.95C189.358 185.864 186.185 189.036 182.271 189.036H7.46796C3.55412 189.036 0.381348 185.864 0.381348 181.95V7.14667C0.381348 3.23283 3.55412 0.0600586 7.46796 0.0600586ZM105.43 100.595V85.0965H38.1752V100.595H62.1868V169.605H81.301V100.595H105.43ZM113.051 167.783C116.134 169.355 119.78 170.533 123.989 171.319C128.197 172.105 132.633 172.498 137.296 172.498C141.841 172.498 146.158 172.066 150.248 171.201C154.339 170.337 157.925 168.913 161.008 166.928C164.09 164.944 166.53 162.352 168.328 159.149C170.126 155.947 171.026 151.988 171.026 147.273C171.026 143.855 170.512 140.86 169.485 138.286C168.457 135.712 166.975 133.424 165.039 131.42C163.102 129.416 160.78 127.618 158.073 126.027C155.366 124.436 152.313 122.933 148.915 121.519C146.425 120.497 144.192 119.505 142.216 118.542C140.241 117.58 138.561 116.597 137.178 115.596C135.795 114.594 134.728 113.533 133.977 112.413C133.226 111.294 132.85 110.026 132.85 108.612C132.85 107.315 133.187 106.146 133.858 105.105C134.53 104.064 135.478 103.17 136.704 102.423C137.929 101.677 139.43 101.098 141.209 100.685C142.987 100.273 144.963 100.066 147.137 100.066C148.717 100.066 150.387 100.184 152.145 100.42C153.904 100.656 155.673 101.019 157.451 101.51C159.229 102.001 160.958 102.62 162.638 103.367C164.318 104.113 165.869 104.978 167.291 105.96V88.3382C164.406 87.2378 161.255 86.4223 157.836 85.8924C154.417 85.3618 150.495 85.0965 146.07 85.0965C141.564 85.0965 137.296 85.5777 133.265 86.5407C129.234 87.5031 125.688 89.0061 122.625 91.0493C119.562 93.0924 117.142 95.6952 115.363 98.8576C113.585 102.021 112.696 105.803 112.696 110.203C112.696 115.822 114.326 120.615 117.587 124.583C120.847 128.552 125.796 131.911 132.436 134.661C135.044 135.723 137.474 136.763 139.727 137.785C141.979 138.807 143.926 139.868 145.565 140.967C147.206 142.068 148.5 143.266 149.448 144.562C150.397 145.859 150.871 147.332 150.871 148.983C150.871 150.201 150.575 151.331 149.982 152.371C149.389 153.413 148.49 154.316 147.285 155.082C146.079 155.849 144.578 156.448 142.779 156.88C140.981 157.312 138.877 157.528 136.466 157.528C132.357 157.528 128.286 156.812 124.255 155.378C120.224 153.944 116.49 151.792 113.051 148.924V167.783Z" fill="#3178C6"/>
</svg>
