<svg width="168" height="190" viewBox="0 0 168 190" fill="none" xmlns="http://www.w3.org/2000/svg">
<path fill-rule="evenodd" clip-rule="evenodd" d="M167.898 132.463V44.3161L91.5655 0.242432V34.0513L121.473 51.3235C121.724 51.4734 121.931 51.6856 122.075 51.9394C122.219 52.1931 122.294 52.4799 122.294 52.7716C122.294 53.0634 122.219 53.3501 122.075 53.6039C121.931 53.8577 121.724 54.0699 121.473 54.2197L85.9176 74.7428C85.4089 75.0381 84.8311 75.1936 84.2429 75.1936C83.6547 75.1936 83.077 75.0381 82.5682 74.7428L47.0124 54.2197C46.7605 54.0712 46.5517 53.8594 46.4067 53.6055C46.2616 53.3515 46.1853 53.0641 46.1853 52.7716C46.1853 52.4792 46.2616 52.1918 46.4067 51.9378C46.5517 51.6838 46.7605 51.4721 47.0124 51.3235L76.9203 34.0513V0.242432L0.581055 44.3161V132.463L29.8584 115.559V81.0212C29.8636 80.7297 29.9441 80.4445 30.0923 80.1934C30.2404 79.9423 30.451 79.7339 30.7037 79.5884C30.9563 79.4429 31.2423 79.3653 31.5338 79.3632C31.8254 79.3611 32.1125 79.4345 32.3672 79.5764L67.923 100.106C68.432 100.401 68.8547 100.824 69.1486 101.333C69.4425 101.843 69.5974 102.421 69.5977 103.009V144.055C69.5954 144.346 69.5175 144.632 69.3714 144.885C69.2253 145.137 69.0162 145.347 68.7645 145.494C68.5129 145.641 68.2273 145.72 67.9358 145.723C67.6444 145.727 67.357 145.654 67.1021 145.513L37.1876 128.221L7.90368 145.125L84.2429 189.219L160.582 145.145L131.298 128.221L101.39 145.493C101.135 145.636 100.846 145.709 100.554 145.706C100.261 145.704 99.9743 145.625 99.7213 145.478C99.4683 145.331 99.2578 145.12 99.1106 144.868C98.9634 144.615 98.8845 144.328 98.8816 144.035V103.002C98.8817 102.414 99.0373 101.837 99.3325 101.328C99.6278 100.819 100.052 100.398 100.563 100.106L136.125 79.5764C136.38 79.4323 136.668 79.3572 136.961 79.3586C137.254 79.3601 137.541 79.438 137.795 79.5846C138.048 79.7312 138.259 79.9415 138.406 80.1947C138.553 80.4478 138.632 80.735 138.634 81.0278V115.559L167.898 132.463Z" fill="white"/>
<path d="M91.5655 0.242432V34.0513L121.473 51.3235C121.724 51.4734 121.931 51.6856 122.075 51.9394C122.219 52.1932 122.294 52.4799 122.294 52.7716C122.294 53.0634 122.219 53.3501 122.075 53.6039C121.931 53.8577 121.724 54.0699 121.473 54.2197L85.9176 74.7494C85.4084 75.0433 84.8309 75.1981 84.2429 75.1981C83.655 75.1981 83.0774 75.0433 82.5682 74.7494L47.0124 54.2263C46.7605 54.0777 46.5517 53.866 46.4067 53.612C46.2616 53.3581 46.1853 53.0707 46.1853 52.7782C46.1853 52.4857 46.2616 52.1983 46.4067 51.9444C46.5517 51.6904 46.7605 51.4787 47.0124 51.3301L76.9203 34.0579V0.242432L0.581055 44.3161L84.2429 92.6192L167.898 44.3161L91.5655 0.242432Z" fill="white"/>
<path fill-rule="evenodd" clip-rule="evenodd" d="M67.1086 145.513L37.1876 128.221L7.90368 145.125L84.2429 189.219V92.6192L0.581055 44.3162V132.464L29.8584 115.559V81.0213C29.8636 80.7298 29.9441 80.4446 30.0923 80.1935C30.2404 79.9424 30.451 79.7339 30.7037 79.5884C30.9563 79.4429 31.2423 79.3653 31.5338 79.3632C31.8254 79.3611 32.1125 79.4346 32.3672 79.5764L67.923 100.106C68.432 100.401 68.8547 100.824 69.1486 101.333C69.4425 101.843 69.5974 102.421 69.5977 103.009V144.055C69.5948 144.345 69.5167 144.63 69.371 144.882C69.2253 145.133 69.0169 145.342 68.7662 145.489C68.5155 145.636 68.2311 145.715 67.9406 145.72C67.6501 145.724 67.3634 145.653 67.1086 145.513Z" fill="white"/>
<path d="M84.2427 189.219L160.582 145.145L131.298 128.221L101.39 145.493C101.134 145.636 100.846 145.709 100.554 145.706C100.261 145.704 99.974 145.625 99.721 145.478C99.468 145.331 99.2576 145.121 99.1104 144.868C98.9632 144.615 98.8843 144.328 98.8814 144.035V103.002C98.8815 102.414 99.037 101.837 99.3323 101.328C99.6275 100.819 100.052 100.398 100.563 100.106L136.125 79.5764C136.38 79.4323 136.668 79.3572 136.961 79.3587C137.254 79.3601 137.541 79.438 137.794 79.5846C138.048 79.7313 138.259 79.9416 138.406 80.1947C138.553 80.4478 138.632 80.735 138.634 81.0278V115.559L167.911 132.464V44.3162L84.2427 92.6192V189.219Z" fill="#A6A6A6"/>
</svg>
