<svg width="171" height="190" viewBox="0 0 171 190" fill="none" xmlns="http://www.w3.org/2000/svg">
<path d="M0.603027 59.8616V130.038C0.603027 138.722 5.234 146.75 12.758 151.091L73.5329 186.182C81.0567 190.527 90.319 190.527 97.843 186.182L158.618 151.091C166.142 146.745 170.773 138.722 170.773 130.038V59.8616C170.773 51.176 166.142 43.1481 158.618 38.8085L97.843 3.72313C90.319 -0.622229 81.0567 -0.622229 73.5329 3.72313L12.758 38.8085C5.234 43.1544 0.603027 51.176 0.603027 59.8616Z" fill="url(#paint0_linear_46_66)"/>
<path d="M43.1453 82.8014V107.112C43.1453 108.722 43.7834 110.272 44.926 111.408C46.0686 112.55 47.6122 113.188 49.2227 113.188C50.8333 113.188 52.3831 112.55 53.5196 111.408C54.6621 110.265 55.3003 108.722 55.3003 107.112C55.3003 105.5 55.9385 103.951 57.081 102.814C58.2236 101.672 59.7673 101.034 61.3778 101.034C62.9883 101.034 64.5381 101.672 65.6745 102.814C66.8172 103.957 67.4552 105.5 67.4552 107.112C67.4552 111.949 65.5348 116.585 62.1132 120.002C58.6915 123.423 54.0544 125.344 49.2227 125.344C44.3911 125.344 39.748 123.423 36.3324 120.002C32.9108 116.58 30.9902 111.943 30.9902 107.112V82.8014C30.9902 77.9638 32.9108 73.3266 36.3324 69.9109C39.754 66.4894 44.3911 64.5688 49.2227 64.5688C54.0544 64.5688 58.6976 66.4894 62.1132 69.9109C65.5287 73.3329 67.4552 77.9691 67.4552 82.8014C67.4552 84.4117 66.8172 85.9615 65.6745 87.098C64.5319 88.2408 62.9883 88.8785 61.3778 88.8785C59.7673 88.8785 58.2174 88.2408 57.081 87.098C55.9385 85.9552 55.3003 84.4117 55.3003 82.8014C55.3003 81.1906 54.6621 79.6403 53.5196 78.5043C52.377 77.362 50.8333 76.7237 49.2227 76.7237C47.6122 76.7237 46.0625 77.362 44.926 78.5043C43.7834 79.6469 43.1453 81.1906 43.1453 82.8014ZM140.385 107.112C140.385 108.722 139.747 110.272 138.605 111.408C137.462 112.55 135.918 113.188 134.308 113.188H128.23V119.266C128.23 120.876 127.592 122.426 126.449 123.564C125.307 124.699 123.763 125.344 122.153 125.344C120.542 125.344 118.993 124.706 117.855 123.564C116.719 122.421 116.075 120.876 116.075 119.266V113.188H103.92V119.266C103.92 120.876 103.281 122.426 102.139 123.564C100.997 124.699 99.454 125.344 97.8429 125.344C96.2323 125.344 94.6825 124.706 93.5458 123.564C92.4035 122.421 91.7652 120.876 91.7652 119.266V113.188H85.6874C84.0772 113.188 82.5274 112.55 81.391 111.408C80.2483 110.265 79.6103 108.722 79.6103 107.112C79.6103 105.5 80.2483 103.951 81.391 102.814C82.5336 101.672 84.0772 101.034 85.6874 101.034H91.7652V88.8785H85.6874C84.0772 88.8785 82.5274 88.2408 81.391 87.098C80.2483 85.9552 79.6103 84.4117 79.6103 82.8014C79.6103 81.1906 80.2483 79.6403 81.391 78.5043C82.5336 77.362 84.0772 76.7237 85.6874 76.7237H91.7652V70.6462C91.7652 69.0353 92.4035 67.4852 93.5458 66.3495C94.6886 65.207 96.2323 64.5688 97.8429 64.5688C99.454 64.5688 101.003 65.207 102.139 66.3495C103.281 67.4916 103.92 69.0353 103.92 70.6462V76.7237H116.075V70.6462C116.075 69.0353 116.713 67.4852 117.855 66.3495C118.999 65.207 120.542 64.5688 122.153 64.5688C123.763 64.5688 125.313 65.207 126.449 66.3495C127.586 67.4916 128.23 69.0353 128.23 70.6462V76.7237H134.308C135.918 76.7237 137.468 77.362 138.605 78.5043C139.74 79.6469 140.385 81.1906 140.385 82.8014C140.385 84.4117 139.747 85.9615 138.605 87.098C137.462 88.2408 135.918 88.8785 134.308 88.8785H128.23V101.034H134.308C135.918 101.034 137.468 101.672 138.605 102.814C139.74 103.957 140.385 105.5 140.385 107.112ZM116.075 88.8785H103.92V101.034H116.075V88.8785Z" fill="white"/>
<defs>
<linearGradient id="paint0_linear_46_66" x1="17.3163" y1="41.7751" x2="99.3624" y2="184.596" gradientUnits="userSpaceOnUse">
<stop stop-color="#927BE5"/>
<stop offset="1" stop-color="#512BD4"/>
</linearGradient>
</defs>
</svg>
