<svg width="135" height="190" viewBox="0 0 135 190" fill="none" xmlns="http://www.w3.org/2000/svg">
<path d="M134.263 38.1255L122.066 174.764L67.2395 189.964L12.5641 174.785L0.379883 38.1255H134.263Z" fill="#264DE4"/>
<path d="M67.3213 49.2994V178.346L111.624 166.063L122.047 49.2994H67.3213Z" fill="#2965F1"/>
<path d="M67.3216 116.745V99.9846H28.312L29.8142 116.745H67.3216Z" fill="#EBEBEB"/>
<path d="M67.3215 66.0604H67.2636H25.2935L26.8171 82.8214H67.3215V66.0604Z" fill="#EBEBEB"/>
<path d="M67.3215 143.514L67.248 143.534L48.5814 138.493L47.3882 125.126H38.3177H30.563L32.9112 151.443L67.2443 160.974L67.3215 160.952V143.514Z" fill="#EBEBEB"/>
<path d="M31.8882 0.987183H52.1884V9.47636H40.3774V17.9655H52.1884V26.4547H31.8882V0.987183Z" fill="white"/>
<path d="M56.2485 0.987183H76.5487V8.36907H64.7377V9.84545H76.5487V26.8238H56.2485V19.0728H68.0596V17.5964H56.2485V0.987183Z" fill="white"/>
<path d="M80.6089 0.987183H100.909V8.36907H89.0981V9.84545H100.909V26.8238H80.6089V19.0728H92.4199V17.5964H80.6089V0.987183Z" fill="white"/>
<path d="M67.2637 82.8214H90.8813L89.3562 99.9846H67.2637V116.745H87.9027L85.9572 138.483L67.2637 143.528V160.966L101.624 151.443L101.876 148.611L105.815 104.485L106.224 99.9846L109.25 66.0604H67.2637V82.8214Z" fill="white"/>
</svg>
