<svg width="190" height="190" viewBox="0 0 190 190" fill="none" xmlns="http://www.w3.org/2000/svg">
<path d="M189.689 0.510498H0.712891V189.487H189.689V0.510498Z" fill="#F7DF1E"/>
<path d="M127.657 148.149C131.464 154.364 136.416 158.933 145.175 158.933C152.533 158.933 157.233 155.255 157.233 150.174C157.233 144.085 152.404 141.928 144.305 138.385L139.866 136.481C127.051 131.021 118.538 124.182 118.538 109.724C118.538 96.4056 128.686 86.2668 144.545 86.2668C155.836 86.2668 163.953 90.1964 169.802 100.485L155.974 109.364C152.929 103.905 149.644 101.754 144.545 101.754C139.344 101.754 136.047 105.053 136.047 109.364C136.047 114.691 139.347 116.848 146.966 120.148L151.405 122.049C166.493 128.52 175.012 135.116 175.012 149.946C175.012 165.934 162.453 174.693 145.586 174.693C129.094 174.693 118.439 166.834 113.226 156.533L127.657 148.149ZM64.9259 149.688C67.7155 154.637 70.2532 158.822 76.3545 158.822C82.1887 158.822 85.8693 156.539 85.8693 147.663V87.2807H103.627V147.903C103.627 166.291 92.8464 174.66 77.1104 174.66C62.8921 174.66 54.6582 167.302 50.4707 158.439L64.9259 149.688Z" fill="black"/>
</svg>
