<svg width="190" height="190" viewBox="0 0 190 190" fill="none" xmlns="http://www.w3.org/2000/svg">
<path fill-rule="evenodd" clip-rule="evenodd" d="M151.156 108.703C149.526 116.555 142.282 136.71 119.177 147.622L109.899 137.189L94.2429 152.927C85.3347 152.808 76.5748 150.63 68.6477 146.564C60.7206 142.498 53.8411 136.654 48.547 129.489C50.2098 130.007 51.9272 130.331 53.6646 130.453C56.2292 130.5 59.0041 129.559 59.0041 125.253V82.7823C59.0402 81.6906 58.8206 80.6055 58.3629 79.6137C57.9052 78.6219 57.2221 77.7508 56.368 77.0698C55.514 76.3888 54.5126 75.9168 53.4438 75.6915C52.3749 75.4661 51.2682 75.4937 50.2119 75.7719C42.962 77.4427 37.1726 95.5295 37.1726 95.5295C37.0914 87.1788 38.8297 78.9107 42.2669 71.2998C45.7042 63.6889 50.7577 56.9179 57.0763 51.4576C65.3929 44.264 75.5735 39.5676 86.4439 37.91C78.528 42.42 74.0823 49.7751 74.0823 55.9442C74.0823 65.8756 80.0645 64.6721 81.8346 63.2116V120.533C82.1362 121.252 82.5289 121.93 83.003 122.549C83.7938 123.643 84.8348 124.531 86.0391 125.141C87.2433 125.751 88.5759 126.064 89.9257 126.054C95.9138 126.054 103.684 119.219 103.684 119.219V72.8217C103.684 68.1014 100.126 62.3996 96.5622 60.4426C96.5622 60.4426 103.158 59.2742 108.246 63.1708C109.202 62.003 110.218 60.8857 111.29 59.8233C123.167 48.1685 134.354 44.8503 143.672 43.1912C143.672 43.1912 126.73 56.5051 126.73 74.3698C126.73 87.6545 127.075 120.054 127.075 120.054C133.361 126.124 142.708 117.355 151.156 108.703Z" fill="white"/>
<path fill-rule="evenodd" clip-rule="evenodd" d="M95.0083 0.603149C76.3203 0.603149 58.0519 6.14479 42.5134 16.5273C26.9749 26.9098 14.8641 41.6668 7.71255 58.9323C0.56096 76.1977 -1.31022 95.1962 2.33563 113.525C5.98147 131.854 14.9806 148.69 28.195 161.905C41.4094 175.119 58.2456 184.118 76.5745 187.764C94.9034 191.41 113.902 189.539 131.167 182.387C148.433 175.235 163.19 163.125 173.572 147.586C183.955 132.048 189.496 113.779 189.496 95.0913C189.496 70.0315 179.541 45.9981 161.822 28.2781C144.102 10.5581 120.068 0.603149 95.0083 0.603149ZM95.0083 185.794C77.0676 185.794 59.5298 180.474 44.6127 170.506C29.6957 160.539 18.0694 146.372 11.204 129.797C4.3387 113.222 2.54271 94.9829 6.04319 77.387C9.54367 59.7911 18.1834 43.6285 30.8698 30.9429C43.5562 18.2573 59.7194 9.61864 77.3155 6.11929C94.9116 2.61995 113.15 4.41711 129.725 11.2835C146.3 18.1499 160.466 29.7772 170.432 44.6948C180.399 59.6125 185.718 77.1507 185.717 95.0913C185.717 119.149 176.16 142.221 159.149 159.232C142.138 176.243 119.066 185.8 95.0083 185.8V185.794Z" fill="white"/>
</svg>
